<svg width="15" height="15" viewBox="0 0 15 15" fill="none" xmlns="http://www.w3.org/2000/svg">
<g clip-path="url(#clip0_38_466)">
<path d="M12.8266 1.84192H11.246V0.904419C11.246 0.821539 11.2131 0.742053 11.1544 0.683448C11.0958 0.624843 11.0164 0.591919 10.9335 0.591919C10.8506 0.591919 10.7711 0.624843 10.7125 0.683448C10.6539 0.742053 10.621 0.821539 10.621 0.904419V1.84192H4.38598V0.904419C4.38598 0.821539 4.35305 0.742053 4.29445 0.683448C4.23584 0.624843 4.15636 0.591919 4.07348 0.591919C3.9906 0.591919 3.91111 0.624843 3.85251 0.683448C3.7939 0.742053 3.76098 0.821539 3.76098 0.904419V1.84192H2.17285C1.75845 1.84192 1.36102 2.00654 1.068 2.29956C0.774972 2.59259 0.610352 2.99002 0.610352 3.40442V12.8057C0.610352 13.2201 0.774972 13.6175 1.068 13.9105C1.36102 14.2035 1.75845 14.3682 2.17285 14.3682H12.8266C13.241 14.3682 13.6384 14.2035 13.9315 13.9105C14.2245 13.6175 14.3891 13.2201 14.3891 12.8057V3.40442C14.3891 2.99002 14.2245 2.59259 13.9315 2.29956C13.6384 2.00654 13.241 1.84192 12.8266 1.84192ZM2.17285 2.46692H3.76098V3.40442C3.76098 3.4873 3.7939 3.56678 3.85251 3.62539C3.91111 3.68399 3.9906 3.71692 4.07348 3.71692C4.15636 3.71692 4.23584 3.68399 4.29445 3.62539C4.35305 3.56678 4.38598 3.4873 4.38598 3.40442V2.46692H10.621V3.40442C10.621 3.4873 10.6539 3.56678 10.7125 3.62539C10.7711 3.68399 10.8506 3.71692 10.9335 3.71692C11.0164 3.71692 11.0958 3.68399 11.1544 3.62539C11.2131 3.56678 11.246 3.4873 11.246 3.40442V2.46692H12.8266C13.0752 2.46692 13.3137 2.56569 13.4895 2.74151C13.6653 2.91732 13.7641 3.15578 13.7641 3.40442V4.32817H1.23535V3.40442C1.23535 3.15578 1.33412 2.91732 1.50994 2.74151C1.68575 2.56569 1.92421 2.46692 2.17285 2.46692ZM12.8266 13.7432H2.17285C1.92421 13.7432 1.68575 13.6444 1.50994 13.4686C1.33412 13.2928 1.23535 13.0543 1.23535 12.8057V4.95317H13.7641V12.8057C13.7641 13.0543 13.6653 13.2928 13.4895 13.4686C13.3137 13.6444 13.0752 13.7432 12.8266 13.7432Z" fill="#9099A2"/>
<path d="M8.76258 6.785C8.72863 6.80854 8.69969 6.83858 8.67743 6.87337C8.65517 6.90817 8.64002 6.94703 8.63287 6.98771C8.62572 7.0284 8.62671 7.0701 8.63578 7.1104C8.64485 7.1507 8.66182 7.1888 8.6857 7.2225L9.90258 8.96063H4.51758C4.4347 8.96063 4.35521 8.99355 4.29661 9.05216C4.238 9.11076 4.20508 9.19025 4.20508 9.27313C4.20508 9.35601 4.238 9.43549 4.29661 9.4941C4.35521 9.5527 4.4347 9.58563 4.51758 9.58563H9.86945L8.68195 11.3275C8.65885 11.3614 8.64265 11.3996 8.6343 11.4398C8.62594 11.48 8.62558 11.5214 8.63324 11.5618C8.6409 11.6021 8.65643 11.6405 8.67895 11.6749C8.70146 11.7092 8.73051 11.7388 8.76445 11.7619C8.79839 11.785 8.83655 11.8012 8.87675 11.8095C8.91694 11.8179 8.95839 11.8182 8.99873 11.8106C9.03906 11.8029 9.07749 11.7874 9.11183 11.7649C9.14616 11.7424 9.17572 11.7133 9.19883 11.6794L10.8588 9.24188L9.19633 6.86688C9.1496 6.79858 9.07769 6.75161 8.99638 6.73626C8.91507 6.72091 8.83099 6.73844 8.76258 6.785Z" fill="#9099A2"/>
</g>
<defs>
<clipPath id="clip0_38_466">
<rect width="15" height="15" fill="white"/>
</clipPath>
</defs>
</svg>
