<svg xmlns="http://www.w3.org/2000/svg" fill-rule="evenodd" clip-rule="evenodd" image-rendering="optimizeQuality" shape-rendering="geometricPrecision" text-rendering="geometricPrecision" viewBox="0 0 1707 1707" width="256" height="256" xmlns:xlink="http://www.w3.org/1999/xlink"><path d="M853 1206c-106,0 -192,-86 -192,-192 0,-14 -4,-40 20,-40l0 0c44,0 -10,73 65,147 95,96 260,28 260,-107 0,-14 -4,-40 20,-40 23,0 20,26 20,40 0,106 -87,192 -193,192z" fill="#000000" class="color000 svgShape"></path><path d="M215 1707c-11 0-20-9-20-20l0-414c1-173 290-299 440-299 30 0 66-7 66 20 0 26-36 20-66 20-150 0-399 121-400 259l0 394 1237-1 0-391c-23-142-261-261-400-261-30 0-66 6-66-20 0-27 36-20 66-20 155 0 414 127 439 296l1 416c0 11-9 20-20 20l-1277 1zM853 926c-185 0-336-172-336-383l0-74c0-26 40-26 40 0l0 74c0 189 133 343 296 343 164 0 297-154 297-343l0-69c0-26 40-26 40 0l0 69c0 211-151 383-337 383z" fill="#000000" class="color000 svgShape"></path><path d="M1026 1014c-11 0-20-9-20-20l0-147c0-27 40-27 40 0l0 147c0 11-9 20-20 20zm-345 0c-11 0-20-9-20-20l0-147c0-27 40-27 40 0l0 147c0 11-9 20-20 20zM1170 496c-11 0-20-9-20-20 0-61-117-218-206-145-75 61-133 61-208 0-89-73-179 84-179 140l0 0c0 24-35 27-39 4-2-11-42-234 78-370 67-77 171-112 308-104 4 1 106 16 181 107 40-7 101-4 114 50l-9 319c0 10-9 19-20 19zm20-20l0 0zm-196-204c65 0 124 53 159 106l6-213c-4-26-59-21-76-16-8 2-17 0-21-7-64-83-154-100-163-101-123-7-215 24-273 90-62 71-76 169-76 241 45-76 130-139 211-72 120 97 134-28 233-28z" fill="#000000" class="color000 svgShape"></path><path d="M768 538c-3 0-49-14-76-2-24 11-40-26-16-37 30-13 128-13 110 27-3 7-11 12-18 12zM939 538c-21 0-28-30-8-39 30-14 128-13 110 27-5 10-17 14-27 10-26-12-72 2-75 2zM853 774c-21 0-114-4-100-42 4-10 16-15 26-11 44 17 104 17 149 0 24-9 39 28 14 37-26 11-58 16-89 16zM461 1707c-12 0-21-10-20-22 32-411-73-536-119-571-21-16 3-48 24-32 64 48 167 191 135 606-1 10-10 19-20 19zM1246 1706c-10 0-19-8-20-18-31-406 68-552 130-602 20-17 45 14 25 31-45 37-146 166-115 568 1 11-8 21-20 21z" fill="#000000" class="color000 svgShape"></path></svg>