<svg xmlns="http://www.w3.org/2000/svg" viewBox="0 0 48 48" width="256" height="256" xmlns:xlink="http://www.w3.org/1999/xlink"><path fill="#010101" d="M35.9 44.5H12.1c-1.8 0-3.3-1.5-3.3-3.3V11.3c0-1.8 1.5-3.3 3.3-3.3h23.8c1.8 0 3.3 1.5 3.3 3.3v29.9c0 1.8-1.5 3.3-3.3 3.3zM12.1 10c-.7 0-1.3.6-1.3 1.3v29.9c0 .7.6 1.3 1.3 1.3h23.8c.7 0 1.3-.6 1.3-1.3V11.3c0-.7-.6-1.3-1.3-1.3H12.1z" class="color010101 svgShape"></path><path fill="#010101" d="M30.9 9h2v34.5h-2zM15.1 9h2v34.5h-2zM29.8 10H18.2V.5h11.7V10zm-9.6-2h7.7V2.5h-7.7V8zM16.6 45.5H19v2h-2.4zM29 45.5h2.4v2H29z" class="color010101 svgShape"></path></svg>