<svg xmlns="http://www.w3.org/2000/svg" enable-background="new 0 0 64 64" viewBox="0 0 64 64" width="256" height="256" xmlns:xlink="http://www.w3.org/1999/xlink"><path fill="#231f20" d="M59.231,12.605l-14.956-0.01l0.001-2.143c0.002-2.926-2.376-5.307-5.302-5.309L25.065,5.134c-2.925-0.002-5.306,2.376-5.308,5.302l-0.001,2.143L4.799,12.57c-2.631-0.002-4.773,2.137-4.775,4.769L0,54.056c-0.002,2.631,2.137,4.773,4.769,4.775l54.432,0.035c2.631,0.002,4.773-2.137,4.775-4.769L64,17.38C64.002,14.748,61.863,12.606,59.231,12.605z M48.376,15.779L48.35,55.678l-32.727-0.021l0.026-39.899L48.376,15.779z M22.938,10.438c0.001-1.171,0.954-2.124,2.125-2.123l13.909,0.009c1.171,0.001,2.124,0.954,2.123,2.126l-0.001,2.143l-18.157-0.012L22.938,10.438z M3.181,54.058l0.024-36.717c0-0.877,0.715-1.59,1.592-1.59l7.671,0.005l-0.026,39.899L4.771,55.65C3.894,55.649,3.181,54.935,3.181,54.058z M60.795,54.095c-0.001,0.877-0.715,1.59-1.592,1.59l-7.672-0.005l0.026-39.899l7.672,0.005c0.877,0.001,1.59,0.715,1.59,1.592L60.795,54.095z" class="color231f20 svgShape"></path></svg>