<svg xmlns="http://www.w3.org/2000/svg" data-name="line expand" viewBox="0 0 48 48" width="256" height="256" xmlns:xlink="http://www.w3.org/1999/xlink"><path fill="#1a1a1a" d="M35.276,5.56a.75.75,0,1,0-1.142.971,15.1,15.1,0,0,1,3.517,11.085l-1.62,17.905a12.063,12.063,0,0,1-24.01.185,36.13,36.13,0,0,0,5.641-2.5l.005,0c.371-.193.756-.4,1.167-.617A50.784,50.784,0,0,0,30.721,23.96c2.153-2.293,4.354-5.152,4.354-8.975A11.083,11.083,0,0,0,24.881,3.955a.578.578,0,0,0-.057-.012c-.015,0-.032.006-.048.007-.257-.018-.514-.04-.776-.04a11.076,11.076,0,0,0-5.373,20.761A19.268,19.268,0,0,0,22.6,26.133c.585.135,1.109.263,1.111.264a.75.75,0,1,0,.357-1.457s-.535-.131-1.133-.269a18.1,18.1,0,0,1-3.6-1.321,9.572,9.572,0,0,1,2.555-17.7A4.135,4.135,0,0,0,21.048,8.1c0,2.148,1.224,3.535,3.119,3.535a3.056,3.056,0,0,0,2.22-.919A2.679,2.679,0,0,0,27.1,8.682,2.461,2.461,0,0,0,24.91,6.337.742.742,0,0,0,24.083,7a.75.75,0,0,0,.663.828.954.954,0,0,1,.859.935,1.192,1.192,0,0,1-.308.923,1.574,1.574,0,0,1-1.13.449c-1.409,0-1.619-1.275-1.619-2.035A2.788,2.788,0,0,1,24.782,5.45a9.583,9.583,0,0,1,8.793,9.535c0,2.625-1.18,5-3.933,7.934a49.28,49.28,0,0,1-11.519,8.344c-.242.13-.469.25-.7.37-1.5-1.184-2.9-2.393-4.165-3.6a.75.75,0,0,0-1.035,1.087c1.149,1.093,2.4,2.187,3.737,3.264a34.112,34.112,0,0,1-4.09,1.788L10.349,17.321A15.035,15.035,0,0,1,15.539,4.56a12.736,12.736,0,0,1,16.272-.239l.31.25c.2.166.405.336.6.512a.75.75,0,0,0,1-1.118q-.321-.288-.66-.561l-.311-.251a14.238,14.238,0,0,0-18.188.267,16.543,16.543,0,0,0-5.71,14.037l1.647,18.2a13.567,13.567,0,0,0,27.024,0l1.621-17.9A16.612,16.612,0,0,0,35.276,5.56Z" class="color1a1a1a svgShape"></path><path fill="#1a1a1a" d="M24.077,22.011a4.177,4.177,0,0,0,3.932-2.087.75.75,0,0,0-1.355-.644,2.743,2.743,0,0,1-2.577,1.231,2.745,2.745,0,0,1-2.571-1.222.75.75,0,0,0-1.36.635A4.178,4.178,0,0,0,24.077,22.011Z" class="color1a1a1a svgShape"></path><path fill="#1c1c1b" d="M27.517 15.553h-.375a.75.75 0 0 1 0-1.5h.375a.75.75 0 0 1 0 1.5zM20.774 15.553H20.4a.75.75 0 0 1 0-1.5h.375a.75.75 0 0 1 0 1.5z" class="color1c1c1b svgShape"></path></svg>